<mxfile host="app.diagrams.net" modified="2021-12-02T06:31:39.803Z" agent="5.0 (Windows NT 10.0; Win64; x64) AppleWebKit/537.36 (KHTML, like Gecko) Chrome/96.0.4664.55 Safari/537.36 Edg/96.0.1054.34" etag="YwgaqDh5D5d7xTFC2rbd" version="15.8.8" type="github" pages="2">
  <diagram id="p3q5ebkpQOmuJFWJU3gc" name="Page-1">
    <mxGraphModel dx="780" dy="1144" grid="1" gridSize="10" guides="1" tooltips="1" connect="1" arrows="1" fold="1" page="1" pageScale="1" pageWidth="827" pageHeight="1169" math="0" shadow="0">
      <root>
        <mxCell id="0" />
        <mxCell id="1" parent="0" />
        <mxCell id="7eWVtSmDGpjbT_dL6xBS-8" style="orthogonalLoop=1;jettySize=auto;html=1;entryX=0;entryY=0.5;entryDx=0;entryDy=0;fontColor=#000000;rounded=0;" parent="1" source="7eWVtSmDGpjbT_dL6xBS-2" target="7eWVtSmDGpjbT_dL6xBS-4" edge="1">
          <mxGeometry relative="1" as="geometry" />
        </mxCell>
        <mxCell id="7eWVtSmDGpjbT_dL6xBS-9" style="edgeStyle=none;rounded=0;orthogonalLoop=1;jettySize=auto;html=1;entryX=0;entryY=0.5;entryDx=0;entryDy=0;fontColor=#000000;" parent="1" source="7eWVtSmDGpjbT_dL6xBS-2" target="7eWVtSmDGpjbT_dL6xBS-5" edge="1">
          <mxGeometry relative="1" as="geometry" />
        </mxCell>
        <mxCell id="7eWVtSmDGpjbT_dL6xBS-10" style="edgeStyle=none;rounded=0;orthogonalLoop=1;jettySize=auto;html=1;entryX=0;entryY=0.5;entryDx=0;entryDy=0;fontColor=#000000;" parent="1" source="7eWVtSmDGpjbT_dL6xBS-2" target="7eWVtSmDGpjbT_dL6xBS-6" edge="1">
          <mxGeometry relative="1" as="geometry" />
        </mxCell>
        <mxCell id="7eWVtSmDGpjbT_dL6xBS-11" style="edgeStyle=none;rounded=0;orthogonalLoop=1;jettySize=auto;html=1;entryX=0;entryY=0.5;entryDx=0;entryDy=0;fontColor=#000000;" parent="1" source="7eWVtSmDGpjbT_dL6xBS-2" target="7eWVtSmDGpjbT_dL6xBS-7" edge="1">
          <mxGeometry relative="1" as="geometry" />
        </mxCell>
        <mxCell id="7eWVtSmDGpjbT_dL6xBS-2" value="" style="shape=umlActor;verticalLabelPosition=bottom;verticalAlign=top;html=1;outlineConnect=0;" parent="1" vertex="1">
          <mxGeometry x="90" y="340" width="50" height="70" as="geometry" />
        </mxCell>
        <mxCell id="7eWVtSmDGpjbT_dL6xBS-3" value="&lt;p class=&quot;MsoNormal&quot;&gt;&lt;span style=&quot;font-size: 14pt&quot;&gt;&lt;font face=&quot;Cordia New&quot;&gt;Borrower&lt;/font&gt;&lt;/span&gt;&lt;/p&gt;" style="text;html=1;align=center;verticalAlign=middle;resizable=0;points=[];autosize=1;strokeColor=none;fillColor=none;" parent="1" vertex="1">
          <mxGeometry x="65" y="390" width="100" height="50" as="geometry" />
        </mxCell>
        <mxCell id="7eWVtSmDGpjbT_dL6xBS-4" value="&lt;p class=&quot;MsoNormal&quot;&gt;&lt;span style=&quot;font-size: 14pt&quot;&gt;&lt;font face=&quot;Cordia New&quot;&gt;Borrow&lt;/font&gt;&lt;/span&gt;&lt;/p&gt;" style="ellipse;whiteSpace=wrap;html=1;fontColor=#000000;" parent="1" vertex="1">
          <mxGeometry x="280" y="130" width="120" height="80" as="geometry" />
        </mxCell>
        <mxCell id="7eWVtSmDGpjbT_dL6xBS-5" value="&lt;p class=&quot;MsoNormal&quot;&gt;&lt;span style=&quot;font-size: 14pt&quot;&gt;&lt;font face=&quot;Cordia New&quot;&gt;return&lt;/font&gt;&lt;/span&gt;&lt;/p&gt;" style="ellipse;whiteSpace=wrap;html=1;fontColor=#000000;" parent="1" vertex="1">
          <mxGeometry x="280" y="260" width="120" height="80" as="geometry" />
        </mxCell>
        <mxCell id="7eWVtSmDGpjbT_dL6xBS-6" value="&lt;p class=&quot;MsoNormal&quot;&gt;&lt;span style=&quot;font-size: 14pt&quot;&gt;&lt;font face=&quot;Cordia New&quot;&gt;book reservation&lt;/font&gt;&lt;/span&gt;&lt;/p&gt;" style="ellipse;whiteSpace=wrap;html=1;fontColor=#000000;" parent="1" vertex="1">
          <mxGeometry x="280" y="400" width="120" height="80" as="geometry" />
        </mxCell>
        <mxCell id="7eWVtSmDGpjbT_dL6xBS-7" value="&lt;p class=&quot;MsoNormal&quot;&gt;&lt;span style=&quot;font-size: 14pt&quot;&gt;&lt;font face=&quot;Cordia New&quot;&gt;Find books&lt;/font&gt;&lt;/span&gt;&lt;/p&gt;" style="ellipse;whiteSpace=wrap;html=1;fontColor=#000000;" parent="1" vertex="1">
          <mxGeometry x="280" y="545" width="120" height="80" as="geometry" />
        </mxCell>
      </root>
    </mxGraphModel>
  </diagram>
  <diagram id="YwAWNL-xDeB2KJ3u9kEx" name="Page-2">
    <mxGraphModel dx="780" dy="1144" grid="1" gridSize="10" guides="1" tooltips="1" connect="1" arrows="1" fold="1" page="1" pageScale="1" pageWidth="827" pageHeight="1169" math="0" shadow="0">
      <root>
        <mxCell id="E8gDQ8Uz-3siCwElqtjw-0" />
        <mxCell id="E8gDQ8Uz-3siCwElqtjw-1" parent="E8gDQ8Uz-3siCwElqtjw-0" />
        <mxCell id="iTP8Q_QnA7OV7nwEY1qQ-0" style="orthogonalLoop=1;jettySize=auto;html=1;entryX=0;entryY=0.5;entryDx=0;entryDy=0;fontColor=#000000;rounded=0;" edge="1" parent="E8gDQ8Uz-3siCwElqtjw-1" source="iTP8Q_QnA7OV7nwEY1qQ-4" target="iTP8Q_QnA7OV7nwEY1qQ-6">
          <mxGeometry relative="1" as="geometry" />
        </mxCell>
        <mxCell id="iTP8Q_QnA7OV7nwEY1qQ-1" style="edgeStyle=none;rounded=0;orthogonalLoop=1;jettySize=auto;html=1;entryX=0;entryY=0.5;entryDx=0;entryDy=0;fontColor=#000000;" edge="1" parent="E8gDQ8Uz-3siCwElqtjw-1" source="iTP8Q_QnA7OV7nwEY1qQ-4" target="iTP8Q_QnA7OV7nwEY1qQ-7">
          <mxGeometry relative="1" as="geometry" />
        </mxCell>
        <mxCell id="iTP8Q_QnA7OV7nwEY1qQ-2" style="edgeStyle=none;rounded=0;orthogonalLoop=1;jettySize=auto;html=1;entryX=0;entryY=0.5;entryDx=0;entryDy=0;fontColor=#000000;" edge="1" parent="E8gDQ8Uz-3siCwElqtjw-1" source="iTP8Q_QnA7OV7nwEY1qQ-4" target="iTP8Q_QnA7OV7nwEY1qQ-8">
          <mxGeometry relative="1" as="geometry" />
        </mxCell>
        <mxCell id="iTP8Q_QnA7OV7nwEY1qQ-4" value="" style="shape=umlActor;verticalLabelPosition=bottom;verticalAlign=top;html=1;outlineConnect=0;" vertex="1" parent="E8gDQ8Uz-3siCwElqtjw-1">
          <mxGeometry x="90" y="340" width="50" height="70" as="geometry" />
        </mxCell>
        <mxCell id="iTP8Q_QnA7OV7nwEY1qQ-5" value="&lt;p class=&quot;MsoNormal&quot;&gt;&lt;span style=&quot;font-size: 14pt&quot;&gt;&lt;font face=&quot;Cordia New&quot;&gt;Librarian&lt;/font&gt;&lt;/span&gt;&lt;/p&gt;" style="text;html=1;align=center;verticalAlign=middle;resizable=0;points=[];autosize=1;strokeColor=none;fillColor=none;" vertex="1" parent="E8gDQ8Uz-3siCwElqtjw-1">
          <mxGeometry x="70" y="390" width="90" height="50" as="geometry" />
        </mxCell>
        <mxCell id="iTP8Q_QnA7OV7nwEY1qQ-14" style="edgeStyle=none;rounded=0;orthogonalLoop=1;jettySize=auto;html=1;entryX=0;entryY=0.5;entryDx=0;entryDy=0;fontFamily=Courier New;fontSize=18;fontColor=#000000;dashed=1;" edge="1" parent="E8gDQ8Uz-3siCwElqtjw-1" source="iTP8Q_QnA7OV7nwEY1qQ-6" target="iTP8Q_QnA7OV7nwEY1qQ-10">
          <mxGeometry relative="1" as="geometry" />
        </mxCell>
        <mxCell id="iTP8Q_QnA7OV7nwEY1qQ-6" value="&lt;p class=&quot;MsoNormal&quot;&gt;&lt;span style=&quot;font-size: 14pt&quot;&gt;&lt;font face=&quot;Cordia New&quot;&gt;Reservation information&lt;/font&gt;&lt;/span&gt;&lt;/p&gt;" style="ellipse;whiteSpace=wrap;html=1;fontColor=#000000;strokeColor=#000000;" vertex="1" parent="E8gDQ8Uz-3siCwElqtjw-1">
          <mxGeometry x="290" y="180" width="120" height="80" as="geometry" />
        </mxCell>
        <mxCell id="iTP8Q_QnA7OV7nwEY1qQ-15" style="edgeStyle=none;rounded=0;orthogonalLoop=1;jettySize=auto;html=1;entryX=0;entryY=0.5;entryDx=0;entryDy=0;fontFamily=Courier New;fontSize=18;fontColor=#000000;dashed=1;" edge="1" parent="E8gDQ8Uz-3siCwElqtjw-1" source="iTP8Q_QnA7OV7nwEY1qQ-7" target="iTP8Q_QnA7OV7nwEY1qQ-11">
          <mxGeometry relative="1" as="geometry" />
        </mxCell>
        <mxCell id="iTP8Q_QnA7OV7nwEY1qQ-7" value="&lt;p class=&quot;MsoNormal&quot;&gt;&lt;span style=&quot;font-size: 14pt&quot;&gt;&lt;font face=&quot;Cordia New&quot;&gt;lending processing&lt;/font&gt;&lt;/span&gt;&lt;/p&gt;" style="ellipse;whiteSpace=wrap;html=1;fontColor=#000000;" vertex="1" parent="E8gDQ8Uz-3siCwElqtjw-1">
          <mxGeometry x="290" y="335" width="120" height="80" as="geometry" />
        </mxCell>
        <mxCell id="iTP8Q_QnA7OV7nwEY1qQ-16" style="edgeStyle=none;rounded=0;orthogonalLoop=1;jettySize=auto;html=1;entryX=0;entryY=0.5;entryDx=0;entryDy=0;fontFamily=Courier New;fontSize=18;fontColor=#000000;dashed=1;" edge="1" parent="E8gDQ8Uz-3siCwElqtjw-1" source="iTP8Q_QnA7OV7nwEY1qQ-8" target="iTP8Q_QnA7OV7nwEY1qQ-11">
          <mxGeometry relative="1" as="geometry" />
        </mxCell>
        <mxCell id="iTP8Q_QnA7OV7nwEY1qQ-8" value="&lt;p class=&quot;MsoNormal&quot;&gt;&lt;span style=&quot;font-size: 14pt&quot;&gt;&lt;font face=&quot;Cordia New&quot;&gt;return processing&lt;/font&gt;&lt;/span&gt;&lt;/p&gt;" style="ellipse;whiteSpace=wrap;html=1;fontColor=#000000;" vertex="1" parent="E8gDQ8Uz-3siCwElqtjw-1">
          <mxGeometry x="290" y="505" width="120" height="80" as="geometry" />
        </mxCell>
        <mxCell id="iTP8Q_QnA7OV7nwEY1qQ-10" value="Voucher reservation" style="ellipse;whiteSpace=wrap;html=1;fontColor=#000000;fontFamily=Courier New;" vertex="1" parent="E8gDQ8Uz-3siCwElqtjw-1">
          <mxGeometry x="490" y="180" width="120" height="80" as="geometry" />
        </mxCell>
        <mxCell id="iTP8Q_QnA7OV7nwEY1qQ-11" value="Processing overdue" style="ellipse;whiteSpace=wrap;html=1;fontColor=#000000;" vertex="1" parent="E8gDQ8Uz-3siCwElqtjw-1">
          <mxGeometry x="490" y="425" width="120" height="80" as="geometry" />
        </mxCell>
        <mxCell id="iTP8Q_QnA7OV7nwEY1qQ-18" style="edgeStyle=none;rounded=0;orthogonalLoop=1;jettySize=auto;html=1;exitX=0;exitY=0.5;exitDx=0;exitDy=0;entryX=1;entryY=0.5;entryDx=0;entryDy=0;fontFamily=Courier New;fontSize=18;fontColor=#000000;dashed=1;" edge="1" parent="E8gDQ8Uz-3siCwElqtjw-1" source="iTP8Q_QnA7OV7nwEY1qQ-12" target="iTP8Q_QnA7OV7nwEY1qQ-11">
          <mxGeometry relative="1" as="geometry" />
        </mxCell>
        <mxCell id="iTP8Q_QnA7OV7nwEY1qQ-12" value="Reminder overdue" style="ellipse;whiteSpace=wrap;html=1;fontColor=#000000;" vertex="1" parent="E8gDQ8Uz-3siCwElqtjw-1">
          <mxGeometry x="690" y="320" width="120" height="80" as="geometry" />
        </mxCell>
        <mxCell id="iTP8Q_QnA7OV7nwEY1qQ-19" style="edgeStyle=none;rounded=0;orthogonalLoop=1;jettySize=auto;html=1;exitX=0;exitY=0.5;exitDx=0;exitDy=0;fontFamily=Courier New;fontSize=18;fontColor=#000000;dashed=1;" edge="1" parent="E8gDQ8Uz-3siCwElqtjw-1" source="iTP8Q_QnA7OV7nwEY1qQ-13">
          <mxGeometry relative="1" as="geometry">
            <mxPoint x="610" y="470" as="targetPoint" />
          </mxGeometry>
        </mxCell>
        <mxCell id="iTP8Q_QnA7OV7nwEY1qQ-13" value="Pay a fine" style="ellipse;whiteSpace=wrap;html=1;fontColor=#000000;" vertex="1" parent="E8gDQ8Uz-3siCwElqtjw-1">
          <mxGeometry x="690" y="530" width="120" height="80" as="geometry" />
        </mxCell>
      </root>
    </mxGraphModel>
  </diagram>
</mxfile>
